<?xml version="1.0" standalone="no"?><svg xmlns:xlink="http://www.w3.org/1999/xlink" xmlns="http://www.w3.org/2000/svg" viewBox="0 0 1000 800" preserveAspectRatio="xMaxYMax slice"><g transform="scale(1.550387596899225)"><rect x="0" y="0" width="645" height="516" fill="#ffffff"/><rect x="0" y="0" width="64.5" height="64.5" fill="#ffffff"/><polygon points="64.5,0 64.5,64.5 0,64.5" fill="#ffffff"/><rect x="64.5" y="0" width="64.5" height="64.5" fill="#ffffff"/><rect x="64.5" y="0" width="64.5" height="64.5" fill="#ffffff"/><rect x="129" y="0" width="64.5" height="64.5" fill="#ffffff"/><rect x="129" y="0" width="64.5" height="64.5" fill="#ffffff"/><rect x="193.5" y="0" width="64.5" height="64.5" fill="#ffffff"/><rect x="193.5" y="0" width="64.5" height="64.5" fill="#ffffff"/><rect x="258" y="0" width="64.5" height="64.5" fill="#ffffff"/><path d="M 258 0 A 64.5 64.5 0 0 1  322.5 64.5 L 258 0 A 64.5 64.5 0 0 0 322.5 64.5" fill="#67d4c7"/><rect x="322.5" y="0" width="64.5" height="64.5" fill="#ffffff"/><polygon points="322.5,0 387,0 322.5,64.5" fill="#ffffff"/><rect x="387" y="0" width="64.5" height="64.5" fill="#ffffff"/><polygon points="387,0 451.5,0 451.5,64.5" fill="#ffffff"/><rect x="451.5" y="0" width="64.5" height="64.5" fill="#ffffff"/><path d="M 451.5 0 A 64.5 64.5 0 0 0 516 64.5 L 516 0" fill="#ffffff"/><rect x="516" y="0" width="64.5" height="64.5" fill="#ffffff"/><polygon points="516,0 580.5,0 580.5,64.5" fill="#ffffff"/><rect x="580.5" y="0" width="64.5" height="64.5" fill="#ffffff"/><rect x="580.5" y="0" width="64.5" height="64.5" fill="#ffffff"/><rect x="0" y="64.5" width="64.5" height="64.5" fill="#ffffff"/><path d="M 0 129 A 64.5 64.5 0 0 1  64.5 64.5 L 64.5 129" fill="#ffffff"/><rect x="64.5" y="64.5" width="64.5" height="64.5" fill="#ffffff"/><rect x="64.5" y="64.5" width="64.5" height="64.5" fill="#ffffff"/><rect x="129" y="64.5" width="64.5" height="64.5" fill="#ffffff"/><rect x="129" y="64.5" width="64.5" height="64.5" fill="#ffffff"/><rect x="193.5" y="64.5" width="64.5" height="64.5" fill="#ffffff"/><rect x="193.5" y="64.5" width="64.5" height="64.5" fill="#ffffff"/><rect x="258" y="64.5" width="64.5" height="64.5" fill="#ffffff"/><path d="M 258 129 A 64.5 64.5 0 0 1  322.5 64.5 L 258 129 A 64.5 64.5 0 0 0 322.5 64.5" fill="#ffffff"/><rect x="322.5" y="64.5" width="64.5" height="64.5" fill="#ffffff"/><polygon points="322.5,64.5 387,64.5 387,129" fill="#ffffff"/><rect x="387" y="64.5" width="64.5" height="64.5" fill="#ffffff"/><rect x="387" y="64.5" width="64.5" height="64.5" fill="#80dbd0"/><rect x="451.5" y="64.5" width="64.5" height="64.5" fill="#ffffff"/><path d="M 451.5 129 A 64.5 64.5 0 0 1  516 64.5 L 516 129" fill="#ffffff"/><rect x="516" y="64.5" width="64.5" height="64.5" fill="#ffffff"/><rect x="516" y="64.5" width="64.5" height="64.5" fill="#c8f0eb"/><rect x="580.5" y="64.5" width="64.5" height="64.5" fill="#ffffff"/><path d="M 580.5 64.5 A 64.5 64.5 0 0 0 645 129 L 645 64.5" fill="#ffffff"/><rect x="0" y="129" width="64.5" height="64.5" fill="#ffffff"/><path d="M 0 129 A 64.5 64.5 0 0 0 64.5 193.5 L 64.5 129" fill="#ffffff"/><rect x="64.5" y="129" width="64.5" height="64.5" fill="#ffffff"/><path d="M 64.5 129 A 64.5 64.5 0 0 1 129 193.5 L 64.5 193.5" fill="#ffffff"/><rect x="129" y="129" width="64.5" height="64.5" fill="#ffffff"/><rect x="129" y="129" width="64.5" height="64.5" fill="#ffffff"/><rect x="193.5" y="129" width="64.5" height="64.5" fill="#ffffff"/><path d="M 193.5 193.5 A 64.5 64.5 0 0 0 258 129 L 193.5 129" fill="#ffffff"/><rect x="258" y="129" width="64.5" height="64.5" fill="#ffffff"/><path d="M 258 129 A 64.5 64.5 0 0 0 322.5 193.5 L 322.5 129" fill="#ffffff"/><rect x="322.5" y="129" width="64.5" height="64.5" fill="#ffffff"/><polygon points="322.5,129 387,193.5 322.5,193.5" fill="#39c7b5"/><rect x="387" y="129" width="64.5" height="64.5" fill="#ffffff"/><polygon points="387,129 451.5,129 451.5,193.5" fill="#ffffff"/><rect x="451.5" y="129" width="64.5" height="64.5" fill="#ffffff"/><path d="M 451.5 193.5 A 64.5 64.5 0 0 1  516 129 L 451.5 193.5 A 64.5 64.5 0 0 0 516 129" fill="#ffffff"/><rect x="516" y="129" width="64.5" height="64.5" fill="#ffffff"/><polygon points="580.5,129 580.5,193.5 516,193.5" fill="#ffffff"/><rect x="580.5" y="129" width="64.5" height="64.5" fill="#ddf6f2"/><polygon points="580.5,129 645,193.5 580.5,193.5" fill="#ffffff"/><rect x="0" y="193.5" width="64.5" height="64.5" fill="#ffffff"/><polygon points="64.5,193.5 64.5,258 0,258" fill="#e5f8f5"/><rect x="64.5" y="193.5" width="64.5" height="64.5" fill="#ffffff"/><rect x="64.5" y="193.5" width="64.5" height="64.5" fill="#ffffff"/><rect x="129" y="193.5" width="64.5" height="64.5" fill="#ffffff"/><polygon points="193.5,193.5 193.5,258 129,258" fill="#ffffff"/><rect x="193.5" y="193.5" width="64.5" height="64.5" fill="#ffffff"/><rect x="193.5" y="193.5" width="64.5" height="64.5" fill="#ffffff"/><rect x="258" y="193.5" width="64.5" height="64.5" fill="#ffffff"/><path d="M 258 258 A 64.5 64.5 0 0 0 322.5 193.5 L 258 193.5" fill="#ffffff"/><rect x="322.5" y="193.5" width="64.5" height="64.5" fill="#ffffff"/><rect x="322.5" y="193.5" width="64.5" height="64.5" fill="#ffffff"/><rect x="387" y="193.5" width="64.5" height="64.5" fill="#ffffff"/><rect x="387" y="193.5" width="64.5" height="64.5" fill="#ffffff"/><rect x="451.5" y="193.5" width="64.5" height="64.5" fill="#ffffff"/><rect x="451.5" y="193.5" width="64.5" height="64.5" fill="#ffffff"/><rect x="516" y="193.5" width="64.5" height="64.5" fill="#ffffff"/><rect x="516" y="193.5" width="64.5" height="64.5" fill="#ffffff"/><rect x="580.5" y="193.5" width="64.5" height="64.5" fill="#ffffff"/><polygon points="645,193.5 645,258 580.5,258" fill="#ffffff"/><rect x="0" y="258" width="64.5" height="64.5" fill="#ffffff"/><rect x="0" y="258" width="64.5" height="64.5" fill="#ffffff"/><rect x="64.5" y="258" width="64.5" height="64.5" fill="#ffffff"/><polygon points="64.5,258 129,322.5 64.5,322.5" fill="#ffffff"/><rect x="129" y="258" width="64.5" height="64.5" fill="#ffffff"/><polygon points="193.5,258 193.5,322.5 129,322.5" fill="#ffffff"/><rect x="193.5" y="258" width="64.5" height="64.5" fill="#eaf9f7"/><rect x="193.5" y="258" width="64.5" height="64.5" fill="#ffffff"/><rect x="258" y="258" width="64.5" height="64.5" fill="#ffffff"/><path d="M 258 322.5 A 64.5 64.5 0 0 0 322.5 258 L 258 258" fill="#ffffff"/><rect x="322.5" y="258" width="64.5" height="64.5" fill="#ffffff"/><path d="M 322.5 322.5 A 64.5 64.5 0 0 0 387 258 L 322.5 258" fill="#ffffff"/><rect x="387" y="258" width="64.5" height="64.5" fill="#ffffff"/><rect x="387" y="258" width="64.5" height="64.5" fill="#ffffff"/><rect x="451.5" y="258" width="64.5" height="64.5" fill="#ffffff"/><polygon points="516,258 516,322.5 451.5,322.5" fill="#ffffff"/><rect x="516" y="258" width="64.5" height="64.5" fill="#f6fcfb"/><path d="M 516 258 A 64.5 64.5 0 0 1  580.5 322.5 L 516 258 A 64.5 64.5 0 0 0 580.5 322.5" fill="#a9e7df"/><rect x="580.5" y="258" width="64.5" height="64.5" fill="#ffffff"/><rect x="580.5" y="258" width="64.5" height="64.5" fill="#ffffff"/><rect x="0" y="322.5" width="64.5" height="64.5" fill="#ebf9f8"/><path d="M 0 387 A 64.5 64.5 0 0 0 64.5 322.5 L 0 322.5" fill="#ffffff"/><rect x="64.5" y="322.5" width="64.5" height="64.5" fill="#ffffff"/><rect x="64.5" y="322.5" width="64.5" height="64.5" fill="#23c1ad"/><rect x="129" y="322.5" width="64.5" height="64.5" fill="#ffffff"/><polygon points="129,322.5 193.5,322.5 193.5,387" fill="#a5e6dd"/><rect x="193.5" y="322.5" width="64.5" height="64.5" fill="#ffffff"/><rect x="193.5" y="322.5" width="64.5" height="64.5" fill="#ffffff"/><rect x="258" y="322.5" width="64.5" height="64.5" fill="#0fbca6"/><rect x="258" y="322.5" width="64.5" height="64.5" fill="#ffffff"/><rect x="322.5" y="322.5" width="64.5" height="64.5" fill="#ffffff"/><rect x="322.5" y="322.5" width="64.5" height="64.5" fill="#baece5"/><rect x="387" y="322.5" width="64.5" height="64.5" fill="#c0ede8"/><polygon points="387,322.5 451.5,387 387,387" fill="#ffffff"/><rect x="451.5" y="322.5" width="64.5" height="64.5" fill="#ffffff"/><polygon points="451.5,322.5 516,322.5 516,387" fill="#ffffff"/><rect x="516" y="322.5" width="64.5" height="64.5" fill="#ffffff"/><rect x="516" y="322.5" width="64.5" height="64.5" fill="#ffffff"/><rect x="580.5" y="322.5" width="64.5" height="64.5" fill="#ffffff"/><rect x="580.5" y="322.5" width="64.5" height="64.5" fill="#ffffff"/><rect x="0" y="387" width="64.5" height="64.5" fill="#ffffff"/><polygon points="0,387 64.5,387 0,451.5" fill="#ffffff"/><rect x="64.5" y="387" width="64.5" height="64.5" fill="#ffffff"/><path d="M 64.5 451.5 A 64.5 64.5 0 0 0 129 387 L 64.5 387" fill="#30c5b2"/><rect x="129" y="387" width="64.5" height="64.5" fill="#ffffff"/><path d="M 129 387 A 64.5 64.5 0 0 1  193.5 451.5 L 129 387 A 64.5 64.5 0 0 0 193.5 451.5" fill="#ffffff"/><rect x="193.5" y="387" width="64.5" height="64.5" fill="#ffffff"/><path d="M 193.5 387 A 64.5 64.5 0 0 0 258 451.5 L 258 387" fill="#ffffff"/><rect x="258" y="387" width="64.5" height="64.5" fill="#ffffff"/><polygon points="258,387 322.5,387 258,451.5" fill="#ffffff"/><rect x="322.5" y="387" width="64.5" height="64.5" fill="#ffffff"/><rect x="322.5" y="387" width="64.5" height="64.5" fill="#ffffff"/><rect x="387" y="387" width="64.5" height="64.5" fill="#ffffff"/><path d="M 387 387 A 64.5 64.5 0 0 1 451.5 451.5 L 387 451.5" fill="#ffffff"/><rect x="451.5" y="387" width="64.5" height="64.5" fill="#ffffff"/><path d="M 451.5 387 A 64.5 64.5 0 0 1 516 451.5 L 451.5 451.5" fill="#ffffff"/><rect x="516" y="387" width="64.5" height="64.5" fill="#ffffff"/><path d="M 516 387 A 64.5 64.5 0 0 0 580.5 451.5 L 580.5 387" fill="#ffffff"/><rect x="580.5" y="387" width="64.5" height="64.5" fill="#68d4c7"/><polygon points="580.5,387 645,387 645,451.5" fill="#ffffff"/><rect x="0" y="451.5" width="64.5" height="64.5" fill="#ffffff"/><polygon points="0,451.5 64.5,451.5 64.5,516" fill="#ffffff"/><rect x="64.5" y="451.5" width="64.5" height="64.5" fill="#ffffff"/><path d="M 64.5 451.5 A 64.5 64.5 0 0 1  129 516 L 64.5 451.5 A 64.5 64.5 0 0 0 129 516" fill="#b3eae3"/><rect x="129" y="451.5" width="64.5" height="64.5" fill="#ffffff"/><rect x="129" y="451.5" width="64.5" height="64.5" fill="#ffffff"/><rect x="193.5" y="451.5" width="64.5" height="64.5" fill="#ffffff"/><path d="M 193.5 516 A 64.5 64.5 0 0 0 258 451.5 L 193.5 451.5" fill="#ffffff"/><rect x="258" y="451.5" width="64.5" height="64.5" fill="#ddf5f2"/><polygon points="258,451.5 322.5,451.5 322.5,516" fill="#ffffff"/><rect x="322.5" y="451.5" width="64.5" height="64.5" fill="#ffffff"/><path d="M 322.5 451.5 A 64.5 64.5 0 0 1  387 516 L 322.5 451.5 A 64.5 64.5 0 0 0 387 516" fill="#ffffff"/><rect x="387" y="451.5" width="64.5" height="64.5" fill="#ffffff"/><path d="M 387 516 A 64.5 64.5 0 0 1  451.5 451.5 L 451.5 516" fill="#ffffff"/><rect x="451.5" y="451.5" width="64.5" height="64.5" fill="#dff6f3"/><path d="M 451.5 516 A 64.5 64.5 0 0 1  516 451.5 L 516 516" fill="#ffffff"/><rect x="516" y="451.5" width="64.5" height="64.5" fill="#ffffff"/><rect x="516" y="451.5" width="64.5" height="64.5" fill="#ffffff"/><rect x="580.5" y="451.5" width="64.5" height="64.5" fill="#ffffff"/><path d="M 580.5 451.5 A 64.5 64.5 0 0 0 645 516 L 645 451.5" fill="#ffffff"/></g></svg>