<svg xmlns="http://www.w3.org/2000/svg" version="1.1" xmlns:xlink="http://www.w3.org/1999/xlink" xmlns:svgjs="http://svgjs.dev/svgjs" width="1440" height="611" preserveAspectRatio="none" viewBox="0 0 1440 611"><g mask="url(&quot;#SvgjsMask1124&quot;)" fill="none"><rect width="1440" height="611" x="0" y="0" fill="rgba(2, 168, 168, 1)"></rect><path d="M0,329.532C62.232,325.529,122.698,306.084,173.173,269.462C221.935,234.082,256.429,183.257,278.735,127.294C300.293,73.208,295.609,15.396,297.632,-42.793C300.117,-114.286,326.524,-190.351,291.952,-252.978C255.684,-318.677,183.992,-360.313,111.546,-379.891C39.861,-399.263,-36.174,-386.164,-105.846,-360.478C-172.388,-335.946,-237.055,-298.026,-274.264,-237.651C-309.287,-180.824,-287.963,-108.727,-301.312,-43.322C-315.804,27.682,-379.08,93.878,-355.944,162.554C-332.875,231.032,-253.527,262.014,-188.109,292.703C-129.069,320.4,-65.079,333.719,0,329.532" fill="#029797"></path><path d="M1440 1150.379C1539.052 1142.864 1597.94 1040.0230000000001 1677.434 980.454 1750.1390000000001 925.973 1832.2440000000001 887.566 1887.234 815.245 1952.6950000000002 729.152 2015.1390000000001 635.262 2021.972 527.325 2029.524 408.03700000000003 2000.712 283.114 1926.872 189.123 1851.591 93.298 1735.215 37.11500000000001 1616.221 10.846000000000004 1501.895-14.393000000000029 1379.601-5.1720000000000255 1273.7930000000001 44.948999999999955 1175.633 91.447 1131.42 200.27999999999997 1054.475 276.941 969.565 361.53700000000003 833.039 404.03 798.257 518.731 762.85 635.493 801.057 771.9490000000001 874.919 869.0640000000001 944.5419999999999 960.607 1075.269 967.071 1178.2269999999999 1018.327 1267.525 1062.782 1340.534 1157.925 1440 1150.379" fill="#02b9b9"></path></g><defs><mask id="SvgjsMask1124"><rect width="1440" height="611" fill="#ffffff"></rect></mask></defs></svg>