<svg xmlns="http://www.w3.org/2000/svg" version="1.1" xmlns:xlink="http://www.w3.org/1999/xlink" xmlns:svgjs="http://svgjs.dev/svgjs" width="1440" height="560" preserveAspectRatio="none" viewBox="0 0 1440 560"><g mask="url(&quot;#SvgjsMask1027&quot;)" fill="none"><path d="M 0,202 C 57.6,178.2 172.8,71.2 288,83 C 403.2,94.8 460.8,253 576,261 C 691.2,269 748.8,140.4 864,123 C 979.2,105.6 1036.8,190.6 1152,174 C 1267.2,157.4 1382.4,66.8 1440,40L1440 560L0 560z" fill="rgba(255, 255, 255, 0.13333333333333333)"></path><path d="M 0,431 C 96,424.2 288,379 480,397 C 672,415 768,526.6 960,521 C 1152,515.4 1344,399.4 1440,369L1440 560L0 560z" fill="rgba(255, 255, 255, 0.13333333333333333)"></path></g><defs><mask id="SvgjsMask1027"><rect width="1440" height="560" fill="#ffffff"></rect></mask></defs></svg>