<svg xmlns="http://www.w3.org/2000/svg" version="1.1" xmlns:xlink="http://www.w3.org/1999/xlink" xmlns:svgjs="http://svgjs.dev/svgjs" width="1440" height="560" preserveAspectRatio="none" viewBox="0 0 1440 560"><g mask="url(&quot;#SvgjsMask1026&quot;)" fill="none"><rect width="1440" height="560" x="0" y="0" fill="rgba(86, 157, 170, 1)"></rect><path d="M0,375.87C68.25,364.668,116.63,309.373,173.938,270.652C229.71,232.969,294.287,207.383,331.939,151.591C373.367,90.203,412.694,15.113,394.91,-56.779C377.246,-128.186,294.736,-158.341,242.466,-210.098C195.034,-257.065,166.818,-331.53,101.871,-346.942C37.141,-362.302,-19.141,-300.245,-84.47,-287.678C-159.826,-273.183,-253.456,-320.67,-309.149,-267.879C-363.766,-216.109,-334.781,-123.659,-336.868,-48.434C-338.713,18.068,-340.825,83.039,-320.642,146.432C-298.378,216.363,-274.641,291.773,-214.957,334.48C-154.389,377.82,-73.494,387.932,0,375.87" fill="#4d8e99"></path><path d="M1440 1093.612C1565.334 1120.42 1695.416 1190.871 1813.67 1141.441 1934.2649999999999 1091.033 1995.242 957.26 2050.064 838.607 2105.074 719.547 2165.966 586.622 2128.022 461.077 2090.8869999999997 338.20799999999997 1946.934 290.219 1856.723 198.90699999999998 1774.051 115.226 1729.3600000000001-9.720000000000027 1620.027-53.11699999999996 1507.631-97.72900000000004 1379.067-76.13599999999997 1265.012-35.95500000000004 1154.653 2.923999999999978 1060.059 76.24700000000001 988.988 169.19600000000003 920.673 258.541 885.094 366.623 871.8 478.305 858.741 588.004 860.994 703.277 913.865 800.278 965.1469999999999 894.364 1063.055 948.727 1156.646 1000.9069999999999 1245.239 1050.3 1340.812 1072.396 1440 1093.612" fill="#67a7b3"></path></g><defs><mask id="SvgjsMask1026"><rect width="1440" height="560" fill="#ffffff"></rect></mask></defs></svg>