<svg xmlns="http://www.w3.org/2000/svg" version="1.1" xmlns:xlink="http://www.w3.org/1999/xlink" xmlns:svgjs="http://svgjs.dev/svgjs" width="1440" height="560" preserveAspectRatio="none" viewBox="0 0 1440 560"><g mask="url(&quot;#SvgjsMask1105&quot;)" fill="none"><path d="M1209.44 483.23 a119.37 119.37 0 1 0 238.74 0 a119.37 119.37 0 1 0 -238.74 0z" fill="rgba(255, 255, 255, 0.13333333333333333)" class="triangle-float1"></path><path d="M214.31 513.04 a154.84 154.84 0 1 0 309.68 0 a154.84 154.84 0 1 0 -309.68 0z" fill="rgba(255, 255, 255, 0.13333333333333333)" class="triangle-float1"></path><path d="M623.9618204498543 427.5903349215178L763.7233228624436 457.2975593281742 793.4305472691 317.5360569155849 653.6690448565106 287.8288325089285z" fill="rgba(255, 255, 255, 0.13333333333333333)" class="triangle-float2"></path><path d="M498.4614749520769 60.154969909172L540.3748129242867 142.41452733421883 622.6343703493335 100.50118936200906 580.7210323771237 18.24163193696222z" fill="rgba(255, 255, 255, 0.13333333333333333)" class="triangle-float2"></path><path d="M969.2185337176549 349.57096873934927L928.373484156848 196.55199591372318 828.7837712451554 292.7246637588037z" fill="rgba(255, 255, 255, 0.13333333333333333)" class="triangle-float3"></path><path d="M135.656,194.398C151.972,193.661,164.925,182.963,173.864,169.293C184.016,153.769,193.253,135.34,185.205,118.628C176.331,100.201,156.107,89.768,135.656,89.955C115.515,90.139,97.194,101.78,87.652,119.519C78.578,136.389,80.628,156.908,90.967,173.035C100.518,187.932,117.978,195.196,135.656,194.398" fill="rgba(255, 255, 255, 0.13333333333333333)" class="triangle-float2"></path></g><defs><mask id="SvgjsMask1105"><rect width="1440" height="560" fill="#ffffff"></rect></mask><style>
                @keyframes float1 {
                    0%{transform: translate(0, 0)}
                    50%{transform: translate(-10px, 0)}
                    100%{transform: translate(0, 0)}
                }

                .triangle-float1 {
                    animation: float1 5s infinite;
                }

                @keyframes float2 {
                    0%{transform: translate(0, 0)}
                    50%{transform: translate(-5px, -5px)}
                    100%{transform: translate(0, 0)}
                }

                .triangle-float2 {
                    animation: float2 4s infinite;
                }

                @keyframes float3 {
                    0%{transform: translate(0, 0)}
                    50%{transform: translate(0, -10px)}
                    100%{transform: translate(0, 0)}
                }

                .triangle-float3 {
                    animation: float3 6s infinite;
                }
            </style></defs></svg>