<svg xmlns="http://www.w3.org/2000/svg" version="1.1" xmlns:xlink="http://www.w3.org/1999/xlink" xmlns:svgjs="http://svgjs.dev/svgjs" width="1440" height="500" preserveAspectRatio="none" viewBox="0 0 1440 500"><g mask="url(&quot;#SvgjsMask1051&quot;)" fill="none"><path d="M6 500L506 0L587 0L87 500z" fill="url(&quot;#SvgjsLinearGradient1052&quot;)"></path><path d="M352.8 500L852.8 0L945.8 0L445.8 500z" fill="url(&quot;#SvgjsLinearGradient1052&quot;)"></path><path d="M679.6 500L1179.6 0L1262.1 0L762.1 500z" fill="url(&quot;#SvgjsLinearGradient1052&quot;)"></path><path d="M1439 500L939 0L703.5 0L1203.5 500z" fill="url(&quot;#SvgjsLinearGradient1053&quot;)"></path><path d="M1120.2 500L620.2 0L222.70000000000005 0L722.7 500z" fill="url(&quot;#SvgjsLinearGradient1053&quot;)"></path><path d="M788.4 500L288.4 0L228.39999999999998 0L728.4 500z" fill="url(&quot;#SvgjsLinearGradient1053&quot;)"></path><path d="M1065.5960391650415 500L1440 125.59603916504159L1440 500z" fill="url(&quot;#SvgjsLinearGradient1052&quot;)"></path><path d="M0 500L374.4039608349584 500L 0 125.59603916504159z" fill="url(&quot;#SvgjsLinearGradient1053&quot;)"></path></g><defs><mask id="SvgjsMask1051"><rect width="1440" height="500" fill="#ffffff"></rect></mask><linearGradient x1="0%" y1="100%" x2="100%" y2="0%" id="SvgjsLinearGradient1052"><stop stop-color="rgba(255, 255, 255, 0.13333333333333333)" offset="0"></stop><stop stop-opacity="0" stop-color="rgba(255, 255, 255, 0.13333333333333333)" offset="0.66"></stop></linearGradient><linearGradient x1="100%" y1="100%" x2="0%" y2="0%" id="SvgjsLinearGradient1053"><stop stop-color="rgba(255, 255, 255, 0.13333333333333333)" offset="0"></stop><stop stop-opacity="0" stop-color="rgba(255, 255, 255, 0.13333333333333333)" offset="0.66"></stop></linearGradient></defs></svg>