<svg xmlns="http://www.w3.org/2000/svg" version="1.1" xmlns:xlink="http://www.w3.org/1999/xlink" xmlns:svgjs="http://svgjs.dev/svgjs" width="1000" height="300" preserveAspectRatio="none" viewBox="0 0 1000 300"><g mask="url(&quot;#SvgjsMask1582&quot;)" fill="none"><path d="M987 222L986 34" stroke-width="6" stroke="url(&quot;#SvgjsLinearGradient1583&quot;)" stroke-linecap="round" class="Down"></path><path d="M361 110L360 -8" stroke-width="8" stroke="url(&quot;#SvgjsLinearGradient1584&quot;)" stroke-linecap="round" class="Up"></path><path d="M802 105L801 266" stroke-width="6" stroke="url(&quot;#SvgjsLinearGradient1584&quot;)" stroke-linecap="round" class="Up"></path><path d="M948 222L947 403" stroke-width="6" stroke="url(&quot;#SvgjsLinearGradient1584&quot;)" stroke-linecap="round" class="Up"></path><path d="M121 141L120 230" stroke-width="10" stroke="url(&quot;#SvgjsLinearGradient1584&quot;)" stroke-linecap="round" class="Up"></path><path d="M168 113L167 280" stroke-width="6" stroke="url(&quot;#SvgjsLinearGradient1584&quot;)" stroke-linecap="round" class="Up"></path><path d="M688 173L687 265" stroke-width="10" stroke="url(&quot;#SvgjsLinearGradient1584&quot;)" stroke-linecap="round" class="Up"></path><path d="M408 73L407 162" stroke-width="10" stroke="url(&quot;#SvgjsLinearGradient1583&quot;)" stroke-linecap="round" class="Down"></path><path d="M961 259L960 362" stroke-width="10" stroke="url(&quot;#SvgjsLinearGradient1584&quot;)" stroke-linecap="round" class="Up"></path><path d="M718 124L717 -21" stroke-width="6" stroke="url(&quot;#SvgjsLinearGradient1584&quot;)" stroke-linecap="round" class="Up"></path><path d="M434 46L433 -174" stroke-width="8" stroke="url(&quot;#SvgjsLinearGradient1584&quot;)" stroke-linecap="round" class="Up"></path><path d="M740 14L739 202" stroke-width="6" stroke="url(&quot;#SvgjsLinearGradient1584&quot;)" stroke-linecap="round" class="Up"></path><path d="M53 290L52 129" stroke-width="8" stroke="url(&quot;#SvgjsLinearGradient1584&quot;)" stroke-linecap="round" class="Up"></path><path d="M855 53L854 261" stroke-width="8" stroke="url(&quot;#SvgjsLinearGradient1584&quot;)" stroke-linecap="round" class="Up"></path><path d="M222 189L221 322" stroke-width="8" stroke="url(&quot;#SvgjsLinearGradient1584&quot;)" stroke-linecap="round" class="Up"></path><path d="M816 66L815 -131" stroke-width="10" stroke="url(&quot;#SvgjsLinearGradient1583&quot;)" stroke-linecap="round" class="Down"></path><path d="M721 131L720 257" stroke-width="10" stroke="url(&quot;#SvgjsLinearGradient1584&quot;)" stroke-linecap="round" class="Up"></path><path d="M475 292L474 441" stroke-width="6" stroke="url(&quot;#SvgjsLinearGradient1583&quot;)" stroke-linecap="round" class="Down"></path><path d="M283 29L282 108" stroke-width="10" stroke="url(&quot;#SvgjsLinearGradient1583&quot;)" stroke-linecap="round" class="Down"></path><path d="M933 107L932 233" stroke-width="10" stroke="url(&quot;#SvgjsLinearGradient1583&quot;)" stroke-linecap="round" class="Down"></path><path d="M300 7L299 125" stroke-width="10" stroke="url(&quot;#SvgjsLinearGradient1583&quot;)" stroke-linecap="round" class="Down"></path><path d="M834 45L833 -76" stroke-width="10" stroke="url(&quot;#SvgjsLinearGradient1584&quot;)" stroke-linecap="round" class="Up"></path><path d="M375 203L374 353" stroke-width="6" stroke="url(&quot;#SvgjsLinearGradient1584&quot;)" stroke-linecap="round" class="Up"></path><path d="M656 89L655 277" stroke-width="6" stroke="url(&quot;#SvgjsLinearGradient1584&quot;)" stroke-linecap="round" class="Up"></path><path d="M513 151L512 -40" stroke-width="8" stroke="url(&quot;#SvgjsLinearGradient1584&quot;)" stroke-linecap="round" class="Up"></path></g><defs><mask id="SvgjsMask1582"><rect width="1000" height="300" fill="#ffffff"></rect></mask><linearGradient x1="0%" y1="0%" x2="0%" y2="100%" id="SvgjsLinearGradient1583"><stop stop-color="rgba(86, 157, 170, 0)" offset="0"></stop><stop stop-color="rgba(86, 157, 170, 0.5333333333333333)" offset="1"></stop></linearGradient><linearGradient x1="0%" y1="100%" x2="0%" y2="0%" id="SvgjsLinearGradient1584"><stop stop-color="rgba(86, 157, 170, 0)" offset="0"></stop><stop stop-color="rgba(86, 157, 170, 0.5333333333333333)" offset="1"></stop></linearGradient></defs></svg>