<svg xmlns="http://www.w3.org/2000/svg" version="1.1" xmlns:xlink="http://www.w3.org/1999/xlink" xmlns:svgjs="http://svgjs.dev/svgjs" viewBox="0 0 800 800"><defs><linearGradient x1="50%" y1="0%" x2="50%" y2="100%" id="ffflurry-grad" gradientTransform="rotate(270)"><stop stop-color="hsla(238, 82%, 13%, 0)" stop-opacity="1" offset="0%"></stop><stop stop-color="hsl(180, 69%, 40%)" stop-opacity="1" offset="45%"></stop><stop stop-color="hsl(180, 69%, 60%)" stop-opacity="1" offset="100%"></stop></linearGradient></defs><rect width="100%" height="100%" fill="hsla(238, 82%, 13%, 0)"></rect><g fill="url(#ffflurry-grad)"><rect width="442" height="9" x="179" y="678.5" rx="4.5" transform="rotate(270, 400, 683)" opacity="0.31"></rect><rect width="203" height="9" x="512.5" y="534.5" rx="4.5" transform="rotate(270, 614, 539)" opacity="0.58"></rect><rect width="285" height="9" x="341.5" y="445.5" rx="4.5" transform="rotate(270, 484, 450)" opacity="0.13"></rect><rect width="160" height="9" x="588" y="159.5" rx="4.5" transform="rotate(270, 668, 164)" opacity="0.96"></rect><rect width="604" height="9" x="-162" y="637.5" rx="4.5" transform="rotate(270, 140, 642)" opacity="0.18"></rect><rect width="93" height="9" x="698.5" y="639.5" rx="4.5" transform="rotate(270, 745, 644)" opacity="0.49"></rect><rect width="140" height="9" x="343" y="101.5" rx="4.5" transform="rotate(270, 413, 106)" opacity="0.39"></rect><rect width="281" height="9" x="181.5" y="374.5" rx="4.5" transform="rotate(270, 322, 379)" opacity="0.54"></rect><rect width="91" height="9" x="662.5" y="381.5" rx="4.5" transform="rotate(270, 708, 386)" opacity="0.70"></rect><rect width="278" height="9" x="475" y="720.5" rx="4.5" transform="rotate(270, 614, 725)" opacity="0.42"></rect><rect width="212" height="9" x="14" y="220.5" rx="4.5" transform="rotate(270, 120, 225)" opacity="0.74"></rect></g></svg>