<svg xmlns="http://www.w3.org/2000/svg" version="1.1" xmlns:xlink="http://www.w3.org/1999/xlink" xmlns:svgjs="http://svgjs.dev/svgjs" viewBox="0 0 800 800"><symbol id="SvgjsSymbol1018"><polygon points="0,18.75 37.5,0 75,18.75 37.5,37.5"></polygon></symbol><symbol id="SvgjsSymbol1019"><polygon points="0,18.75 37.5,37.5 37.5,75 0,56.25"></polygon></symbol><symbol id="SvgjsSymbol1020"><polygon points="37.5,37.5 75,18.75 75,56.25 37.5,75"></polygon></symbol><g shape-rendering="crispEdges"><g transform="translate(50 -150)"><use xlink:href="#SvgjsSymbol1030" x="31.25" y="531.25" fill="#0dbba5"></use><use xlink:href="#SvgjsSymbol1031" x="31.25" y="531.25" fill="#5feed6"></use><use xlink:href="#SvgjsSymbol1032" x="31.25" y="531.25" fill="#008a76"></use></g><g transform="translate(50 -150)"><use xlink:href="#SvgjsSymbol1030" x="31.25" y="468.75" fill="#0dbba5"></use><use xlink:href="#SvgjsSymbol1031" x="31.25" y="468.75" fill="#5feed6"></use><use xlink:href="#SvgjsSymbol1032" x="31.25" y="468.75" fill="#008a76"></use></g><g transform="translate(50 -150)"><use xlink:href="#SvgjsSymbol1030" x="31.25" y="406.25" fill="#0dbba5"></use><use xlink:href="#SvgjsSymbol1031" x="31.25" y="406.25" fill="#5feed6"></use><use xlink:href="#SvgjsSymbol1032" x="31.25" y="406.25" fill="#008a76"></use></g><g transform="translate(50 -150)"><use xlink:href="#SvgjsSymbol1030" x="31.25" y="343.75" fill="#0dbba5"></use><use xlink:href="#SvgjsSymbol1031" x="31.25" y="343.75" fill="#5feed6"></use><use xlink:href="#SvgjsSymbol1032" x="31.25" y="343.75" fill="#008a76"></use></g><g transform="translate(50 -150)"><use xlink:href="#SvgjsSymbol1030" x="31.25" y="281.25" fill="#0dbba5"></use><use xlink:href="#SvgjsSymbol1031" x="31.25" y="281.25" fill="#5feed6"></use><use xlink:href="#SvgjsSymbol1032" x="31.25" y="281.25" fill="#008a76"></use></g><g transform="translate(50 -75)"><use xlink:href="#SvgjsSymbol1030" x="93.75" y="343.75" fill="#0dbba5"></use><use xlink:href="#SvgjsSymbol1031" x="93.75" y="343.75" fill="#5feed6"></use><use xlink:href="#SvgjsSymbol1032" x="93.75" y="343.75" fill="#008a76"></use></g><g transform="translate(50 -75)"><use xlink:href="#SvgjsSymbol1030" x="156.25" y="375" fill="#0dbba5"></use><use xlink:href="#SvgjsSymbol1031" x="156.25" y="375" fill="#5feed6"></use><use xlink:href="#SvgjsSymbol1032" x="156.25" y="375" fill="#008a76"></use></g><g transform="translate(50 -75)"><use xlink:href="#SvgjsSymbol1030" x="218.75" y="531.25" fill="#0dbba5"></use><use xlink:href="#SvgjsSymbol1031" x="218.75" y="531.25" fill="#5feed6"></use><use xlink:href="#SvgjsSymbol1032" x="218.75" y="531.25" fill="#008a76"></use></g><g transform="translate(50 -75)"><use xlink:href="#SvgjsSymbol1030" x="218.75" y="468.75" fill="#0dbba5"></use><use xlink:href="#SvgjsSymbol1031" x="218.75" y="468.75" fill="#5feed6"></use><use xlink:href="#SvgjsSymbol1032" x="218.75" y="468.75" fill="#008a76"></use></g><g transform="translate(50 -75)"><use xlink:href="#SvgjsSymbol1030" x="218.75" y="406.25" fill="#0dbba5"></use><use xlink:href="#SvgjsSymbol1031" x="218.75" y="406.25" fill="#5feed6"></use><use xlink:href="#SvgjsSymbol1032" x="218.75" y="406.25" fill="#008a76"></use></g><g transform="translate(50 -75)"><use xlink:href="#SvgjsSymbol1030" x="218.75" y="343.75" fill="#0dbba5"></use><use xlink:href="#SvgjsSymbol1031" x="218.75" y="343.75" fill="#5feed6"></use><use xlink:href="#SvgjsSymbol1032" x="218.75" y="343.75" fill="#008a76"></use></g><g transform="translate(50 -75)"><use xlink:href="#SvgjsSymbol1030" x="218.75" y="281.25" fill="#0dbba5"></use><use xlink:href="#SvgjsSymbol1031" x="218.75" y="281.25" fill="#5feed6"></use><use xlink:href="#SvgjsSymbol1032" x="218.75" y="281.25" fill="#008a76"></use></g><g transform="translate(50 -75)"><use xlink:href="#SvgjsSymbol1030" x="156.25" y="375" fill="#0dbba5"></use><use xlink:href="#SvgjsSymbol1031" x="156.25" y="375" fill="#5feed6"></use><use xlink:href="#SvgjsSymbol1032" x="156.25" y="375" fill="#008a76"></use></g><g transform="translate(50 -75)"><use xlink:href="#SvgjsSymbol1030" x="218.75" y="531.25" fill="#0dbba5"></use><use xlink:href="#SvgjsSymbol1031" x="218.75" y="531.25" fill="#5feed6"></use><use xlink:href="#SvgjsSymbol1032" x="218.75" y="531.25" fill="#008a76"></use></g><g transform="translate(50 -75)"><use xlink:href="#SvgjsSymbol1030" x="218.75" y="468.75" fill="#0dbba5"></use><use xlink:href="#SvgjsSymbol1031" x="218.75" y="468.75" fill="#5feed6"></use><use xlink:href="#SvgjsSymbol1032" x="218.75" y="468.75" fill="#008a76"></use></g><g transform="translate(50 -75)"><use xlink:href="#SvgjsSymbol1030" x="218.75" y="406.25" fill="#0dbba5"></use><use xlink:href="#SvgjsSymbol1031" x="218.75" y="406.25" fill="#5feed6"></use><use xlink:href="#SvgjsSymbol1032" x="218.75" y="406.25" fill="#008a76"></use></g><g transform="translate(50 -75)"><use xlink:href="#SvgjsSymbol1030" x="218.75" y="343.75" fill="#0dbba5"></use><use xlink:href="#SvgjsSymbol1031" x="218.75" y="343.75" fill="#5feed6"></use><use xlink:href="#SvgjsSymbol1032" x="218.75" y="343.75" fill="#008a76"></use></g><g transform="translate(50 -75)"><use xlink:href="#SvgjsSymbol1030" x="218.75" y="281.25" fill="#0dbba5"></use><use xlink:href="#SvgjsSymbol1031" x="218.75" y="281.25" fill="#5feed6"></use><use xlink:href="#SvgjsSymbol1032" x="218.75" y="281.25" fill="#008a76"></use></g><g transform="translate(50 -75)"><use xlink:href="#SvgjsSymbol1030" x="375" y="593.75" fill="#0dbba5"></use><use xlink:href="#SvgjsSymbol1031" x="375" y="593.75" fill="#5feed6"></use><use xlink:href="#SvgjsSymbol1032" x="375" y="593.75" fill="#008a76"></use></g><g transform="translate(50 -75)"><use xlink:href="#SvgjsSymbol1030" x="375" y="531.25" fill="#0dbba5"></use><use xlink:href="#SvgjsSymbol1031" x="375" y="531.25" fill="#5feed6"></use><use xlink:href="#SvgjsSymbol1032" x="375" y="531.25" fill="#008a76"></use></g><g transform="translate(50 -75)"><use xlink:href="#SvgjsSymbol1030" x="375" y="468.75" fill="#0dbba5"></use><use xlink:href="#SvgjsSymbol1031" x="375" y="468.75" fill="#5feed6"></use><use xlink:href="#SvgjsSymbol1032" x="375" y="468.75" fill="#008a76"></use></g><g transform="translate(50 -75)"><use xlink:href="#SvgjsSymbol1030" x="375" y="343.75" fill="#2b2992"></use><use xlink:href="#SvgjsSymbol1031" x="375" y="343.75" fill="#6253c3"></use><use xlink:href="#SvgjsSymbol1032" x="375" y="343.75" fill="#000363"></use></g><g transform="translate(50 -75)"><use xlink:href="#SvgjsSymbol1030" x="531.25" y="656.25" fill="#2b2992"></use><use xlink:href="#SvgjsSymbol1031" x="531.25" y="656.25" fill="#6253c3"></use><use xlink:href="#SvgjsSymbol1032" x="531.25" y="656.25" fill="#000363"></use></g><g transform="translate(50 -75)"><use xlink:href="#SvgjsSymbol1030" x="531.25" y="531.25" fill="#2b2992"></use><use xlink:href="#SvgjsSymbol1031" x="531.25" y="531.25" fill="#6253c3"></use><use xlink:href="#SvgjsSymbol1032" x="531.25" y="531.25" fill="#000363"></use></g><g transform="translate(50 -75)"><use xlink:href="#SvgjsSymbol1030" x="531.25" y="468.75" fill="#2b2992"></use><use xlink:href="#SvgjsSymbol1031" x="531.25" y="468.75" fill="#6253c3"></use><use xlink:href="#SvgjsSymbol1032" x="531.25" y="468.75" fill="#000363"></use></g><g transform="translate(50 -75)"><use xlink:href="#SvgjsSymbol1030" x="531.25" y="406.25" fill="#2b2992"></use><use xlink:href="#SvgjsSymbol1031" x="531.25" y="406.25" fill="#6253c3"></use><use xlink:href="#SvgjsSymbol1032" x="531.25" y="406.25" fill="#000363"></use></g></g><g></g><symbol id="SvgjsSymbol1021"><polygon points="0,25 50,0 100,25 50,50"></polygon></symbol><symbol id="SvgjsSymbol1022"><polygon points="0,25 50,50 50,100 0,75"></polygon></symbol><symbol id="SvgjsSymbol1023"><polygon points="50,50 100,25 100,75 50,100"></polygon></symbol><symbol id="SvgjsSymbol1024"><polygon points="0,31.25 62.5,0 125,31.25 62.5,62.5"></polygon></symbol><symbol id="SvgjsSymbol1025"><polygon points="0,31.25 62.5,62.5 62.5,125 0,93.75"></polygon></symbol><symbol id="SvgjsSymbol1026"><polygon points="62.5,62.5 125,31.25 125,93.75 62.5,125"></polygon></symbol><symbol id="SvgjsSymbol1027"><polygon points="0,25 50,0 100,25 50,50"></polygon></symbol><symbol id="SvgjsSymbol1028"><polygon points="0,25 50,50 50,100 0,75"></polygon></symbol><symbol id="SvgjsSymbol1029"><polygon points="50,50 100,25 100,75 50,100"></polygon></symbol><symbol id="SvgjsSymbol1030"><polygon points="0,31.25 62.5,0 125,31.25 62.5,62.5"></polygon></symbol><symbol id="SvgjsSymbol1031"><polygon points="0,31.25 62.5,62.5 62.5,125 0,93.75"></polygon></symbol><symbol id="SvgjsSymbol1032"><polygon points="62.5,62.5 125,31.25 125,93.75 62.5,125"></polygon></symbol></svg>